<?xml version="1.0" standalone="no"?>
<!DOCTYPE svg PUBLIC "-//W3C//DTD SVG 20010904//EN"
 "http://www.w3.org/TR/2001/REC-SVG-20010904/DTD/svg10.dtd">
<svg version="1.0" xmlns="http://www.w3.org/2000/svg"
 width="1024.000000pt" height="1024.000000pt" viewBox="0 0 1024.000000 1024.000000"
 preserveAspectRatio="xMidYMid meet">
<metadata>
Created by potrace 1.14, written by Peter Selinger 2001-2017
</metadata>
<g transform="translate(0.000000,1024.000000) scale(0.100000,-0.100000)"
fill="#000000" stroke="none">
<path d="M4858 10235 c-2 -1 -50 -6 -108 -9 -58 -4 -117 -8 -130 -11 -14 -2
-52 -6 -85 -9 -33 -3 -69 -7 -80 -10 -17 -3 -121 -18 -150 -21 -79 -9 -324
-62 -493 -105 -516 -134 -1049 -372 -1497 -668 -154 -101 -360 -254 -465 -343
-41 -35 -88 -75 -104 -89 -138 -117 -396 -378 -502 -507 -22 -25 -46 -54 -54
-63 -8 -8 -40 -47 -70 -85 -30 -39 -59 -75 -65 -81 -5 -6 -17 -22 -25 -34 -8
-13 -24 -35 -36 -49 -109 -136 -312 -466 -434 -706 -84 -164 -218 -467 -229
-517 -1 -4 -11 -29 -22 -55 -32 -74 -115 -345 -155 -503 -10 -40 -43 -188 -47
-210 -3 -14 -8 -36 -11 -50 -16 -67 -49 -290 -62 -405 -2 -27 -7 -63 -9 -80
-26 -177 -26 -847 0 -1005 2 -14 6 -50 9 -80 8 -77 15 -131 32 -235 9 -49 17
-103 20 -120 5 -37 11 -71 18 -93 3 -9 8 -33 11 -52 6 -36 56 -234 94 -370
106 -386 343 -907 594 -1304 76 -120 320 -456 369 -507 7 -8 26 -30 42 -49 52
-65 190 -213 287 -310 153 -152 250 -240 413 -372 11 -10 26 -21 31 -26 113
-93 521 -372 544 -372 6 0 11 -4 11 -10 0 -5 4 -10 10 -10 5 0 31 -13 57 -29
100 -60 322 -173 472 -240 418 -185 890 -324 1296 -381 44 -6 91 -13 105 -15
14 -3 50 -7 80 -10 30 -3 69 -8 85 -10 186 -27 790 -27 1025 0 44 5 145 16
185 20 58 7 219 35 345 61 41 9 86 18 100 20 206 40 663 189 890 291 25 12 68
31 95 43 159 71 440 222 563 302 15 10 34 21 42 25 28 13 255 170 345 238 299
227 580 491 815 766 97 113 100 117 178 219 40 52 76 100 82 107 5 6 54 78
108 160 358 534 612 1133 747 1758 13 60 26 126 30 145 3 19 7 46 10 60 3 14
7 39 9 55 8 54 18 120 22 140 2 11 7 49 10 83 3 35 7 73 9 83 11 58 20 286 20
524 0 333 -13 524 -51 745 -2 14 -6 50 -10 80 -3 30 -7 57 -9 61 -2 3 -7 21
-10 40 -16 100 -87 403 -115 494 -106 344 -186 548 -330 840 -116 234 -285
525 -373 640 -4 6 -47 64 -95 130 -228 310 -506 610 -779 842 -26 23 -59 51
-73 63 -46 41 -264 206 -330 251 -36 24 -69 47 -75 52 -43 35 -316 201 -450
272 -49 27 -97 52 -105 56 -38 21 -234 112 -301 139 -437 183 -833 293 -1299
360 -103 15 -145 20 -320 36 -54 5 -647 13 -652 9z"/>
</g>
</svg>
